<?xml version="1.0" standalone="no"?>
<!DOCTYPE svg PUBLIC "-//W3C//DTD SVG 1.1//EN" "http://www.w3.org/Graphics/SVG/1.1/DTD/svg11.dtd" >
<!--
2013-9-30: Created.
-->
<svg>
<metadata>
Created by iconfont
</metadata>
<defs>

<font id="iconfont" horiz-adv-x="1024" >
  <font-face
    font-family="iconfont"
    font-weight="500"
    font-stretch="normal"
    units-per-em="1024"
    ascent="896"
    descent="-128"
  />
    <missing-glyph />
    
    <glyph glyph-name="xiangxia" unicode="&#58899;" d="M112 561.696a32 32 0 0 1-43.52-46.944l392.192-363.904a64 64 0 0 1 86.816-0.224l396.384 364.032a32 32 0 1 1-43.296 47.136L504.192 197.76 112 561.696z"  horiz-adv-x="1024" />

    
    <glyph glyph-name="zhifubao" unicode="&#59064;" d="M578.656119 244.791471c0 0-66.657142-53.342906-90.911546-67.318198-21.306258-12.275581-41.315988-20.447704-59.139935-26.113751-17.827017-5.661953-33.452903-9.225105-46.873564-10.69355-13.421684-1.468444-24.536836-2.411933-33.344432-2.832512-0.839111-0.417509-1.890047-0.630357-3.145643-0.630357l-10.067286 0c-23.071462 0-44.775786 2.728134-65.119113 8.181333-20.343327 5.452175-38.062897 13.526061-53.165874 24.223704-15.098883 10.69355-27.052123 24.115234-35.859719 40.265052-8.807596 16.146749-13.21293 34.917254-13.21293 56.307424 0.420579 18.457374 5.453199 35.233456 15.098883 50.333362 9.646708 15.102976 22.124903 27.894304 37.436634 38.380122 15.308661 10.487865 32.296567 18.457374 50.962695 23.910573 18.662035 5.452175 37.432541 7.756661 56.307424 6.91755 18.457374-0.838088 36.281321-3.038196 53.479005-6.604418 17.197684-3.566222 33.660634-7.864108 49.389874-12.895705 15.72924-5.03569 30.619368-10.487865 44.671409-16.358573 14.052041-5.873778 27.369348-11.535731 39.952944-16.98893 5.031597-2.094708 10.276041-4.193509 15.72924-6.291287 5.452175-2.094708 11.114129-4.193509 16.984836-6.291287 12.166087 15.520485 22.441105 30.724769 30.828123 45.613874 8.390088 14.891152 15.311731 28.52159 20.764929 40.895409 5.452175 12.374842 9.645684 22.75526 12.583596 31.145347 2.936889 8.387018 4.822842 14.260795 5.661953 17.615193L344.610642 455.561849l0 30.201859 128.977513 0 0 69.833485L294.278303 555.597193l0 30.201859 179.310875 0 0 56.624648c0 3.776 2.094708 6.814196 6.291287 9.120728 4.193509 2.307555 9.016351 3.880377 14.46955 4.718465 6.291287 1.25969 13.422707 1.890047 21.390169 1.890047l48.447409 0 0-72.353888 184.342472 0 0-30.201859L564.187593 555.597193l0-69.833485 146.487306 0c0.032746 0.207731 0.072655 0.418532 0.105401 0.626263l0-0.626263-0.105401 0c-2.947122-18.690688-7.940856-38.401612-14.993482-59.144028-5.870708-18.035772-14.573927-38.587853-26.109658-61.656245-11.535731-23.068392-26.738991-46.766117-45.613874-71.093175 0 0 144.394644-69.061912 296.819173-93.39511 25.316595 56.146764 39.408545 118.444623 39.408545 184.033433 0 247.526513-200.659089 448.185602-448.185602 448.185602S63.814398 632.03305 63.814398 384.506537s200.659089-448.185602 448.185602-448.185602c153.540955 0 289.042045 77.213569 369.81058 194.923458C799.718911 149.107225 712.540386 185.314869 578.656119 244.791471zM226.326679 264.926044c-1.682315-76.902484 85.334527-82.615603 98.749048-83.029018 44.342927-1.364067 80.158644 15.385409 108.052948 31.952736 27.89021 16.568351 73.386404 59.357899 75.063603 60.826344s3.354398 3.041266 5.031597 4.718465c-12.161994 6.712889-24.116257 12.899798-35.859719 18.561751-11.744485 5.661953-71.411423 37.70474-124.367519 43.189661C252.726955 351.531518 226.838332 288.32087 226.326679 264.926044z"  horiz-adv-x="1024" />

    
    <glyph glyph-name="dashang" unicode="&#58917;" d="M512 768c-211.7 0-384-172.3-384-384s172.3-384 384-384 384 172.3 384 384-172.3 384-384 384z m0-717.4c-183.8 0-333.4 149.6-333.4 333.4S328.2 717.4 512 717.4 845.4 567.8 845.4 384 695.8 50.6 512 50.6zM661.6 589.3c-9.9 9.9-25.9 9.9-35.8 0L512 475.4 398.2 589.3c-9.9 9.9-25.9 9.9-35.8 0-9.9-9.9-9.9-25.9 0-35.8l87.3-87.3h-69.4c-14 0-25.3-11.3-25.3-25.3s11.3-25.3 25.3-25.3h106.4v-68.3H380.3c-14 0-25.3-11.3-25.3-25.3s11.3-25.3 25.3-25.3h106.4v-100c0-14 11.3-25.3 25.3-25.3s25.3 11.3 25.3 25.3v100h106.4c14 0 25.3 11.3 25.3 25.3s-11.3 25.3-25.3 25.3H537.3v68.3h106.4c14 0 25.3 11.3 25.3 25.3s-11.3 25.3-25.3 25.3h-69.4l87.3 87.3c9.9 9.8 9.9 25.9 0 35.8z"  horiz-adv-x="1024" />

    
    <glyph glyph-name="yinlemusic215" unicode="&#58904;" d="M1024 384c0 282.763636-229.236364 512-512 512C229.236364 896 0 666.763636 0 384c0-282.763636 229.236364-512 512-512C794.763636-128 1024 101.236364 1024 384zM428.916364 223.371636c0-12.520727-3.490909-30.114909-7.540364-39.144727-11.543273-25.088-48.174545-46.638545-77.730909-46.638545-18.059636 0-32.116364 5.026909-40.634182 14.522182-6.516364 8.005818-11.031273 19.549091-11.031273 30.114909 0 22.574545 17.035636 43.147636 44.637091 54.178909 11.031273 4.514909 21.085091 6.516364 30.580364 6.516364 15.546182 0 29.602909-2.513455 39.610182-7.028364L406.807273 540.904727l291.467636 70.749091 0-317.021091c0-25.088-8.517818-45.149091-25.088-60.695273-18.059636-16.058182-40.634182-25.6-62.184727-25.6-18.059636 0-31.604364 5.026909-40.122182 14.522182-6.516364 8.005818-11.031273 19.549091-11.031273 30.114909 0 19.549091 13.032727 38.120727 34.629818 49.664 11.543273 6.004364 29.602909 11.543273 39.144727 11.543273 15.546182 0 30.580364-2.513455 42.635636-7.540364L676.258909 529.361455 428.916364 467.688727 428.916364 223.371636z"  horiz-adv-x="1024" />

    
    <glyph glyph-name="yinle" unicode="&#58971;" d="M384 96c-17.6 0-32 14.4-32 32V648c0 48 36.8 89.6 84.8 96l384 48c27.2 1.6 54.4-6.4 75.2-24 20.8-17.6 32-44.8 32-72v-504c0-17.6-14.4-32-32-32s-32 14.4-32 32V696c0 9.6-3.2 17.6-11.2 24s-16 9.6-25.6 8l-384-48c-16-1.6-28.8-16-28.8-32v-520c1.6-17.6-12.8-32-30.4-32z m368-64c-97.6 0-176 72-176 160s78.4 160 176 160 176-72 176-160-78.4-160-176-160z m0 256c-62.4 0-112-43.2-112-96s49.6-96 112-96 112 43.2 112 96-49.6 96-112 96zM240-32c-97.6 0-176 72-176 160s78.4 160 176 160 176-72 176-160-78.4-160-176-160z m0 256c-62.4 0-112-43.2-112-96s49.6-96 112-96 112 43.2 112 96-49.6 96-112 96z m176 256c-16 0-28.8 11.2-32 27.2-1.6 17.6 9.6 33.6 27.2 35.2l320 43.2c17.6 1.6 33.6-9.6 35.2-27.2 1.6-17.6-9.6-33.6-27.2-35.2l-320-43.2H416z"  horiz-adv-x="1024" />

    
    <glyph glyph-name="qzone" unicode="&#58946;" d="M753.755 226.861c-98.163 7.774-196.357 15.548-294.52 23.321 5.306 2.592 10.615 5.181 15.919 7.772 90.203 64.772 180.437 129.563 270.64 194.335-5.306 0-10.615 0-15.921 0-97.455 42.083-397.55 32.699-485.557-7.772 116.733-7.774 233.505-15.547 350.238-23.321-2.654-5.181-5.306-10.365-7.96-15.546-95.512-62.179-191.047-124.381-286.558-186.562 0-2.592 0-5.18 0-7.773 174.163-23.443 364.193-2.403 525.357 15.547 0-2.592 0-5.182 0-7.773-5.304 0-10.615 0-15.919 0-29.503-23.218-34.162-10.548-39.801-62.188 13.266-64.771 26.535-129.563 39.801-194.333-2.654-2.595-5.306-5.182-7.96-7.773-10.612 0-21.229 0-31.841 0-63.725 53.829-178.625 131.244-278.598 139.921-82.247-46.638-164.513-93.285-246.759-139.921-10.611 5.179-21.229 10.365-31.84 15.545 18.57 101.045 37.149 202.121 55.72 303.164-74.286 67.363-148.593 134.744-222.879 202.107 1.79 5.242 3.578 10.483 5.367 15.724 0.288 0.844 0.577 1.688 0.864 2.531 0.577 1.688 1.152 3.377 1.729 5.065 98.163 12.954 196.356 25.913 294.519 38.868 53.062 93.273 106.139 186.568 159.199 279.842 5.306 0 10.615 0 15.921 0 45.101-95.862 90.217-191.754 135.32-287.616 103.467-10.362 206.969-20.731 310.437-31.094 2.656-5.181 5.306-10.366 7.96-15.546-74.285-72.545-148.593-145.11-222.878-217.656 0.001-12.955 0.001-25.913 0.001-38.868z"  horiz-adv-x="1024" />

    
    <glyph glyph-name="weibo" unicode="&#58890;" d="M2.778359 896zM763.377135 393.466074q-15.744776 3.155041-20.445007 9.433743t-1.57752 11.548515l3.15504 5.237482q1.04027 1.04027 2.114772 3.155041t4.197212 8.929773 4.733512 13.630005 2.61779 16.785046-0.5363 18.900768-6.311983 19.404738-13.126986 18.900768q-14.703556 14.703556-38.305506 18.900768t-47.202949 0.5363-44.582307-9.433744-34.612263-11.012215l-13.630005-6.311983q-10.507294-3.155041-17.323247-4.197213t-10.507294 0.5363-5.774733 3.155041-1.57752 7.352253 1.040269 9.970044 2.61779 13.126986 3.155041 14.167256q0 12.588784-1.57752 23.600048t-6.815003 24.641269-15.208476 22.023478-25.17947 13.630005-39.346727 3.155041-54.554251-12.588784q-36.727034-12.588784-74.494339-37.231004t-65.564564-51.397309-50.89429-51.935511-35.686765-40.924246l-11.548515-16.785046q-34.612263-45.120508-51.397309-90.240066t-15.744776-68.185207v-22.023479q6.311984-50.357039 30.952302-90.240065t58.750513-64.524295 80.269071-41.964516 88.662545-25.179471 89.703765-11.012215q77.651281-6.311984 161.042112 12.052485t155.269281 63.484025T849.383855 202.604166q17.826266 36.727034 18.364468 69.258758t-11.012215 52.97578-29.912032 36.190734-34.612263 23.09703-28.83753 9.433743zM443.405781 67.183686q-113.303814-5.237482-192.500285 44.079288t-79.19457 124.852328q0 74.494338 78.691551 128.51229t193.036585 59.287764 193.036585-37.767304 78.69155-117.500075q0-75.53651-80.269071-135.864543t-191.459064-65.564565zM412.99073 357.813541q-30.415051-3.155041-54.554252-14.167256t-37.767304-25.17947-23.097029-30.415051-13.126986-31.993522-4.733512-28.837531-1.04027-20.445007l1.04027-8.393474v-4.197212q0-3.155041 2.114771-12.588784t5.774733-17.323248 12.052484-17.323247 19.941989-15.744777q69.258758-33.571993 129.04859-20.445007t96.517817 60.327083q14.703556 17.826266 19.404737 44.079287t-2.114771 52.975781-23.600048 48.779518-49.820739 34.109245-76.073761 6.815002z m-37.769206-198.308299q-6.311984-1.04027-12.052484-0.5363t-10.507294 2.114771-9.433744 3.65806-7.855272 5.774733-5.774733 7.352253-4.197212 8.393474-1.577521 9.970043q0 11.548515 6.311984 22.559779t17.323248 18.900768 24.641268 8.929774q9.433743 1.04027 18.364468-0.5363t15.208477-5.237482 11.012215-8.393474 6.815002-11.012215 2.114771-13.630005q0-11.548515-6.815002-22.023479t-18.364468-17.826266-25.179471-8.393474z m89.166515 75.53651q-7.352253-5.237482-15.208476-4.733513t-11.012215 6.815003l-2.114771 4.197212q-1.04027 2.114771-1.04027 4.197213v4.197212q0 3.155041 1.04027 5.237482l2.114771 4.197212q1.04027 2.114771 3.155041 3.155041l3.155041 4.197213q8.393474 6.311984 16.248746 5.237482t11.012214-8.393474q3.155041-4.197212 2.617791-9.433744t-3.155041-9.970043-6.815003-8.929774z m372.443165 219.289606q6.311984 0 11.548515 3.155041t8.393474 7.855272 4.197212 9.970043q1.04027 1.04027 1.04027 3.155041 12.588784 119.615797-83.929984 136.400843-28.334511 5.237482-52.471811 1.04027-7.352253 0-12.588784-3.65806t-8.929774-9.433743-3.658059-12.052485q0-10.507294 7.352253-17.826266t17.826266-7.352253q81.847542 18.900768 88.125294-52.471811 2.114771-17.826266-2.114771-33.571993 0-10.507294 7.352253-17.826267t17.826267-7.352253z m-17.826266 295.833104q-46.160778 10.507294-123.812059-4.197212-1.04027 0-2.114771-1.04027l-1.04027-2.114771-1.04027-1.040269q-11.548515-3.155041-18.900768-13.126986t-7.352253-21.518559q0-15.744776 10.507294-26.21974t25.179471-10.507294h3.155041q1.04027 0 4.733512 1.04027t7.855272 1.57752 8.929774 2.114771 8.393474 3.155041 14.167255 1.577521 25.715771-1.577521 33.571993-7.855272 36.727034-15.744776 36.727035-26.21974 31.993522-38.808525q27.294242-61.906505 10.507294-119.615797 0-1.04027-0.5363-2.114771t-1.57752-5.237482-2.114772-7.855272-2.114771-9.433744-1.04027-9.970043q0-9.433743 5.237482-15.744776t13.126987-8.929774 18.364468-2.61779q29.375732 0 34.612263 35.686765 12.588784 40.924247 14.167255 78.15525t-5.237482 65.564565-20.445007 52.97578-31.489552 41.964517-39.883026 31.489552-42.501768 22.559778-42.501767 13.630005z"  horiz-adv-x="1049" />

    
    <glyph glyph-name="fenlei" unicode="&#58921;" d="M683.82648213 443.44235627c28.34258027-28.32402453 74.27402027-28.32402453 102.61550827 0l112.86057707 112.86057706c28.34258027 28.32402453 28.34258027 74.272928 0 102.59804374L786.4419904 771.76155413c-28.341488 28.35895253-74.272928 28.35895253-102.61550827 0L570.9648128 658.90097707c-28.32402453-28.32402453-28.32402453-74.272928 0-102.59804374L683.82648213 443.44235627zM613.2156256 626.11588373l103.4145056 103.39485867c10.37059413 10.40879787 27.217216 10.40879787 37.5899936 0l103.39485867-103.39485867c10.39133333-10.3727776 10.39133333-27.19975147 0-37.57143786l-103.39485867-103.43087894c-10.3727776-10.3727776-27.21939947-10.3727776-37.5899936 0l-103.4145056 103.43087894C602.842848 598.9150410699999 602.842848 615.74310613 613.2156256 626.11588373zM828.2027072 347.40875307L642.51984 347.40875307c-51.26245547 0-92.82451413-41.56096747-92.82451413-92.84197867l0-185.6839584c0-51.24389973 41.56205867-92.84197867 92.82451413-92.84197867l185.68286613 0c51.2788288 0 92.84197867 41.59698773 92.84197867 92.84197867L921.04468587 254.5678656C921.04468587 305.84778667 879.4826272 347.40875307 828.2027072 347.40875307zM865.3571808 68.88390827c0-20.4901376-16.6283168-37.13591787-37.15447467-37.13591787L642.51984 31.747989329999996c-20.4912288 0-37.13701013 16.64578133-37.13701013 37.13591787L605.38283093 254.5678656c0 20.52615787 16.64578133 37.13591787 37.13701014 37.13591787l185.68286613 0c20.52615787 0 37.15447467-16.61085227 37.15447467-37.13591787L865.3571808 68.88390827zM382.57932693 347.40875307L196.87899627 347.40875307c-51.26245547 0-92.83324693-41.56096747-92.83324694-92.84197867l0-185.6839584c0-51.24389973 41.57079147-92.84197867 92.83324694-92.84197867l185.70033066 0c51.26245547 0 92.82451413 41.59698773 92.82451414 92.84197867L475.40384107 254.5678656C475.40384107 305.84778667 433.8417824 347.40875307 382.57932693 347.40875307zM419.69887253 68.88390827c0-20.4901376-16.6184928-37.13591787-37.1195456-37.13591787L196.87899627 31.747989329999996c-20.49886933 0-37.1293696 16.64578133-37.1293696 37.13591787L159.74962667 254.5678656c0 20.52615787 16.629408 37.13591787 37.1293696 37.13591787l185.70033066 0c20.5010528 0 37.1195456-16.61085227 37.1195456-37.13591787L419.69887253 68.88390827zM382.57932693 793.04959787L196.87899627 793.04959787c-51.26245547 0-92.83324693-41.56096747-92.83324694-92.84197867l0-185.6839584c0-51.24499093 41.57079147-92.84197867 92.83324694-92.84197867l185.70033066 0c51.26245547 0 92.82451413 41.59698773 92.82451414 92.84197867L475.40384107 700.2076192C475.40384107 751.4886304 433.8417824 793.04959787 382.57932693 793.04959787zM419.69887253 514.5236608c0-20.4912288-16.6184928-37.13701013-37.1195456-37.13701013L196.87899627 477.38665067c-20.49886933 0-37.1293696 16.64578133-37.1293696 37.13701013L159.74962667 700.2076192c0 20.52615787 16.629408 37.13591787 37.1293696 37.13591787l185.70033066 0c20.5010528 0 37.1195456-16.60976 37.1195456-37.13591787L419.69887253 514.5236608z"  horiz-adv-x="1024" />

    
    <glyph glyph-name="huojian" unicode="&#59019;" d="M524.83842941 843.16829487a24.32373047 24.32373047 0 0 1-25.67685883 0c-115.45846581-72.31994612-192.20937417-200.40709163-192.20937365-346.35791893a406.23596192 406.23596192 0 0 1 4.71936756-61.47413878c0.88269645-5.75937681-0.30588479-11.54497282-3.31229688-16.52652749-28.68327039-47.5607427-45.48946449-104.20189882-45.48946449-165.18662284a326.13327003 326.13327003 0 0 1 10.1116829-80.84976659c5.74189783-22.41699835 36.63627974-24.73298471 46.3109843-3.71431729 15.26802933 33.16667007 37.03829963 63.72894797 63.99113561 90.71674185 1.92270517-2.67430857 3.65314064-5.48845045 5.62828322-8.11032161a1644.81811523 1644.81811523 0 0 1 123.08811085-4.70188908 1640.35629248 1640.35629248 0 0 1 123.08811085 4.70188908c1.9751426 2.62187116 3.70557807 5.43601303 5.61954401 8.1015824 26.95283544-26.98779338 48.72310523-57.5500718 63.99113508-90.71674238 9.67470455-21.01866741 40.56908646-18.70268106 46.31098429 3.7143173a326.20742774 326.20742774 0 0 1 10.12042265 80.85850632c0 60.96724352-16.81493332 117.61713988-45.48946449 165.16914335-3.00641259 4.9815552-4.18625462 10.77589044-3.31229739 16.52652801a406.23596192 406.23596192 0 0 1 4.71936858 61.47413878c-0.00873974 145.97704601-76.75090837 274.0554518-192.20937416 346.3753979zM594.56272258 538.20972196a82.56225563 82.56225563 0 1 0-165.14292414-5.3e-7 82.56225563 82.56225563 0 0 0 165.14292414 5.3e-7zM434.66354023 165.34523639999998C434.66354023 129.94997583999998 469.28971893-54.734628120000025 512.00873922-54.734628120000025c42.71902029 0 77.33645925 184.6933437 77.345199 220.07986452 0 35.39526056-34.62617869 64.07853097-77.33645925 64.0697912-42.72776004 0.00873974-77.36267847-28.68327039-77.35393874-64.0697912z"  horiz-adv-x="1024" />

    
    <glyph glyph-name="icon-test" unicode="&#58931;" d="M512 525.1c-22 0-39.9-17.9-39.9-40 0-22 17.9-39.9 39.9-39.9s39.9 17.9 39.9 39.9c0 22.1-17.9 40-39.9 40z m0-64.2c-13.3 0-24.2 10.8-24.2 24.2s10.8 24.2 24.2 24.2c13.3 0 24.2-10.8 24.2-24.2s-10.9-24.2-24.2-24.2zM646.2 685.7C626.2 720.1 557.5 832 511.5 832c-45.9 0-114.4-112-134.3-146.3-33.6-57.9-91.4-174.3-106.9-309.9-40.5-58.8-61.9-126.7-61.9-196.8 0-60.3 16.3-120.3 47.3-173.3 5.6-9.7 16-15.6 27.2-15.6s21.6 6 27.2 15.7c14.7 25.3 33.6 45.9 57.4 62.4 26.8-23.5 57.1-40.1 89.4-48.9v-51.7c0-17.4 14.1-31.5 31.5-31.5h47.2c17.4 0 31.5 14.1 31.5 31.5v51.7c32.3 8.9 62.6 25.5 89.4 48.9 23.8-16.5 42.7-37 57.5-62.4 5.6-9.7 16-15.7 27.2-15.7s21.6 6 27.2 15.6c30.9 53.1 47.2 113 47.2 173.3 0 70.1-21.4 138-62 196.8-15.5 135.7-73.7 252-107.4 309.9zM535.6 214.79999999999995h-47.2c-4.4 0-7.9-3.5-7.9-7.9V54c-99.2 19.3-174.9 127.1-174.9 253.5 0 133.1 48.1 256.6 98.1 345.7h216.1c50.3-89.1 98.6-212.5 98.6-345.7 0-126.4-75.7-234.2-174.9-253.5V206.89999999999998c0 4.4-3.5 7.9-7.9 7.9z m-7.9-15.7v-223.7h-31.5V199.10000000000002h31.5zM290.5 334c-0.4-8.8-0.7-17.6-0.7-26.5 0-77.1 27-147.7 70.2-197.8-31.3-18.7-57.2-42.8-76.9-72.6C260 81.20000000000005 247.7 130 247.8 179c0 54.5 14.8 107.5 42.7 155z m220.9 458.7c10.9-1.6 54.8-48.6 99.3-123.7h-198c44.4 75 87.9 122.1 98.7 123.7z m222.7-485.2c0 8.9-0.2 17.8-0.7 26.5 28-47.5 42.8-100.5 42.8-155 0-49-12.2-97.8-35.4-141.9-19.7 29.8-45.7 54-77 72.7 43.2 50 70.3 120.6 70.3 197.7z"  horiz-adv-x="1024" />

    
    <glyph glyph-name="gongzhonghao" unicode="&#58942;" d="M691.23 532.944c4.507 0 8.986-0.1 13.443-0.267-28.388 129.985-162.366 228.411-323.384 228.411-181.675 0-328.95-125.292-328.95-279.845 0-90.299 50.286-170.592 128.32-221.762l-32.866-96.942 108.829 59.677c38.451-13.407 80.538-20.818 124.666-20.818 8.507 0 16.938 0.274 25.281 0.815-9.206 24.38-14.193 50.361-14.193 77.331 0.002 139.947 133.802 253.399 298.855 253.399zM494.811 622.75c26.828 0 48.577-21.748 48.577-48.577 0-26.828-21.748-48.577-48.577-48.577s-48.577 21.748-48.577 48.577c0.001 26.829 21.749 48.577 48.577 48.577zM268.823 525.596c-26.828 0-48.577 21.748-48.577 48.577 0 26.828 21.748 48.577 48.577 48.577s48.577-21.748 48.577-48.577c0-26.828-21.748-48.577-48.577-48.577zM968.964 279.544c0 130.059-124.345 235.492-277.733 235.492s-277.732-105.433-277.732-235.492 124.345-235.492 277.733-235.492c32.207 0 63.124 4.664 91.888 13.212l94.96-52.071-27.599 81.407c71.639 42.59 118.484 113.124 118.484 192.944zM604.458 313.337c-21.48 0-38.893 17.413-38.893 38.893 0 21.48 17.413 38.893 38.893 38.893 21.48 0 38.893-17.413 38.893-38.893-0-21.48-17.413-38.893-38.893-38.893zM785.396 313.337c-21.48 0-38.893 17.413-38.893 38.893 0 21.48 17.413 38.893 38.893 38.893 21.48 0 38.893-17.413 38.893-38.893-0-21.48-17.414-38.893-38.893-38.893z"  horiz-adv-x="1024" />

    
    <glyph glyph-name="github" unicode="&#58920;" d="M0 371.008q0-166.016 95.488-298.496t247.488-185.504q6.016-0.992 10.016-0.992t6.496 1.504 4 3.008 2.016 4.992 0.512 4.992v100.512q-36.992-4-66.016 0.512t-45.504 14.016-28.992 23.488-16.992 25.504-8.992 24-5.504 14.496q-8.992 15.008-27.008 27.488t-27.008 20-2.016 14.496q50.016 26.016 112.992-66.016 34.016-51.008 119.008-30.016 10.016 40.992 40 70.016Q293.984 160 237.984 225.024t-56 158.016q0 87.008 55.008 151.008-22.016 64.992 6.016 136.992 28.992 2.016 64.992-11.488t50.496-23.008 25.504-17.504q56.992 16 128.512 16t129.504-16q12.992 8.992 28.992 19.008t48.992 21.504 60.992 9.504q27.008-71.008 7.008-135.008 56-64 56-151.008 0-92.992-56.992-158.496t-172-85.504q43.008-43.008 43.008-104v-128.992q0-0.992 0.992-3.008 0-6.016 0.512-8.992t4.512-6.016 12-3.008q152.992 52 250.496 185.504t97.504 300.512q0 104-40.512 199.008t-108.992 163.488-163.488 108.992T512.032 883.04 313.024 842.528 149.536 733.536t-108.992-163.488-40.512-199.008z"  horiz-adv-x="1024" />

    
    <glyph glyph-name="nav_client" unicode="&#58985;" d="M863.6188448 19.137421870000026A90.56711147 90.56711147 0 0 1 876.08888853 65.19466666999995V133.68888852999999c0 100.1244448-90.9312 186.5955552-222.27626666 226.59982294C706.3779552 410.35093333 739.5555552 483.9424 739.5555552 566.0444448000001c0 49.5616-12.1059552 96.0284448-33.2231104 136.07822187C801.13208853 695.02293333 876.08888853 606.2307552 876.08888853 497.77777813c0-70.76977813-31.85777813-133.16551147-80.41813333-169.9384896 126.11128853-27.30666667 216.95146667-103.90186667 216.95146667-194.1504v-69.0403552a45.51111147 45.51111147 0 0 0-45.5111104-45.51111146h-103.49226667zM375.46666667 338.48888853000005c-125.65617813 0-227.5555552 112.0483552-227.5555552 250.31111147S249.81048853 839.11111147 375.46666667 839.11111147s227.5555552-112.0483552 227.5555552-250.31111147S501.1228448 338.48888853000005 375.46666667 338.48888853000005z m364.08888853-318.80533333a91.02222187 91.02222187 0 0 0-91.02222187-91.02222187H102.4a91.02222187 91.02222187 0 0 0-91.02222187 91.02222187V88.17777812999998C11.37777813 226.44053333 174.39857813 338.48888853000005 375.46666667 338.48888853000005s364.08888853-112.0483552 364.08888853-250.3111104v-68.49422293z"  horiz-adv-x="1024" />

    
    <glyph glyph-name="qq" unicode="&#58895;" d="M116.435 302.286c-33.54-78.964-38.985-154.297-12.059-168.37 18.572-9.696 47.686 12.382 74.936 52.909 10.791-44.157 37.493-84.137 75.633-116.21-40.004-14.768-66.135-38.886-66.135-66.232 0-44.954 70.709-81.302 157.978-81.302 78.716 0 143.907 29.538 155.94 68.371 3.232 0.049 15.663 0.049 18.796 0 12.083-38.784 77.324-68.371 155.989-68.371 87.267 0 157.978 36.398 157.978 81.302 0 27.297-26.105 51.464-66.135 66.232 38.089 32.123 64.889 72.053 75.631 116.21 27.251-40.527 56.29-62.605 74.887-52.909 26.95 14.073 21.631 89.456-12.032 168.37-26.355 62.058-62.11 107.754-89.457 117.848 0.398 3.929 0.596 7.958 0.596 11.935 0 23.968-6.661 46.146-18.049 64.196 0.199 1.393 0.199 2.834 0.199 4.227 0 11.038-2.636 21.381-7.114 30.332-6.909 161.309-111.93 289.402-281.866 289.402-170.036 0-275.106-128.093-281.943-289.402-4.525-9.001-7.135-19.343-7.135-30.332 0-1.393 0.099-2.835 0.15-4.227-11.288-18.05-17.951-40.178-17.951-64.196 0-3.978 0.15-7.955 0.498-11.935-27.151-10.094-63.028-55.841-89.333-117.848z"  horiz-adv-x="1024" />

    
    <glyph glyph-name="geren2" unicode="&#58897;" d="M936.896 110.208c9.28 14.336 17.664 29.056 25.472 44.224 1.856 3.648 3.52 7.36 5.312 11.072 5.952 12.288 11.392 24.832 16.32 37.632 1.984 5.184 3.904 10.368 5.76 15.616 4.096 11.904 7.68 23.936 10.944 36.16 1.536 5.888 3.2 11.712 4.544 17.6 2.816 12.608 4.992 25.472 6.848 38.464 0.832 5.568 1.92 11.008 2.56 16.64 2.048 18.56 3.328 37.312 3.328 56.32 0 278.976-227.008 505.984-505.984 505.984S6.016 662.976 6.016 384c0-19.072 1.28-37.824 3.328-56.32 0.64-5.632 1.728-11.072 2.56-16.704 1.92-12.928 4.032-25.728 6.848-38.336 1.344-6.016 3.008-11.84 4.544-17.664 3.264-12.224 6.848-24.32 10.944-36.16 1.792-5.248 3.712-10.432 5.696-15.616 4.928-12.8 10.432-25.344 16.32-37.632 1.792-3.712 3.456-7.424 5.312-11.072 7.744-15.168 16.192-29.888 25.408-44.096 0.32-0.576 0.64-1.152 1.024-1.664C178.432-30.016 334.592-121.984 512-121.984s333.632 92.032 423.936 230.656C936.256 109.184 936.576 109.696 936.896 110.208zM512 647.552c102.592 0 185.984-83.456 185.984-185.984 0-102.656-83.456-186.176-185.984-186.176S326.016 358.912 326.016 461.568C326.016 564.096 409.408 647.552 512 647.552zM204.416 67.2C257.216 187.904 377.152 268.736 512 268.736s254.784-80.896 307.648-201.472C739.968-10.112 631.552-57.984 512-57.984 392.448-57.984 284.032-10.112 204.416 67.2z"  horiz-adv-x="1024" />

    
    <glyph glyph-name="pinglun" unicode="&#58980;" d="M291.636 510.596c-30.49 0-55.207-25.633-55.207-57.266 0-31.637 24.717-57.272 55.207-57.272 30.486 0 55.203 25.635 55.203 57.272C346.839 484.962 322.122 510.596 291.636 510.596L291.636 510.596zM512.461 510.596c-30.49 0-55.208-25.633-55.208-57.266 0-31.637 24.722-57.272 55.208-57.272 30.486 0 55.204 25.635 55.204 57.272C567.665 484.962 542.947 510.596 512.461 510.596L512.461 510.596zM733.287 510.596c-30.492 0-55.208-25.633-55.208-57.266 0-31.637 24.716-57.272 55.208-57.272 30.486 0 55.202 25.635 55.202 57.272C788.489 484.962 763.773 510.596 733.287 510.596L733.287 510.596zM843.697 796.923 181.221 796.923c-60.972 0-110.41-51.287-110.41-114.539l0-429.487c0-63.256 50.543-121.56 112.92-121.56l168.257 0c29.33-31.245 150.716-156.912 150.716-156.912 5.389-5.606 14.124-5.606 19.514 0 0 0 88.87 100.764 146.775 156.912l172.193 0c62.376 0 112.92 58.308 112.92 121.56L954.106 682.385C954.107 745.637 904.673 796.923 843.697 796.923zM899.451 252.702c0-31.669-26.565-64.899-57.799-64.899L672.075 187.803c-20.543 0-39.009-21.123-39.009-21.123L514 43.185 394.955 166.68c0 0-22.676 21.123-42.112 21.123L183.267 187.803c-31.235 0-57.794 33.23-57.794 64.899L125.473 682.795c0 31.677 24.751 57.353 55.28 57.353l663.411 0c30.53 0 55.287-25.676 55.287-57.353L899.451 252.702zM898.905 252.897"  horiz-adv-x="1024" />

    
    <glyph glyph-name="rili" unicode="&#58998;" d="M832 640l-64 0 0-19.2c0-19.2-12.8-32-32-32S704 601.6 704 620.8L704 640 544 640l0-19.2c0-19.2-12.8-32-32-32S480 601.6 480 620.8L480 640 320 640l0-19.2c0-19.2-12.8-32-32-32S256 601.6 256 620.8L256 640 192 640C153.6 640 128 614.4 128 576l0-512c0-38.4 25.6-64 64-64l640 0c38.4 0 64 25.6 64 64L896 576C896 614.4 870.4 640 832 640zM864 89.6c0-32-25.6-57.6-57.6-57.6L217.6 32c-32 0-57.6 25.6-57.6 57.6L160 486.4c0 32 25.6 57.6 57.6 57.6l595.2 0c32 0 57.6-25.6 57.6-57.6L870.4 89.6zM512 601.6 512 601.6c-6.4 0-12.8 6.4-12.8 12.8L499.2 710.4c0 6.4 6.4 12.8 12.8 12.8l0 0c6.4 0 12.8-6.4 12.8-12.8l0-96C524.8 608 518.4 601.6 512 601.6zM288 601.6 288 601.6c-6.4 0-19.2 6.4-19.2 12.8L268.8 710.4c0 6.4 6.4 12.8 12.8 12.8l0 0c6.4 0 12.8-6.4 12.8-12.8l0-96C307.2 608 294.4 601.6 288 601.6zM736 601.6 736 601.6c-6.4 0-12.8 6.4-12.8 12.8L723.2 710.4c0 6.4 6.4 12.8 12.8 12.8l0 0c6.4 0 12.8-6.4 12.8-12.8l0-96C755.2 608 742.4 601.6 736 601.6zM313.6 352 288 352C288 384 294.4 409.6 320 428.8s44.8 32 76.8 32c32 0 51.2-6.4 70.4-25.6 19.2-19.2 25.6-38.4 25.6-70.4 0-19.2-6.4-38.4-12.8-57.6C467.2 288 448 268.8 428.8 243.2l-83.2-89.6 147.2 0L492.8 128 275.2 128l121.6 134.4C422.4 281.6 435.2 300.8 448 313.6c6.4 12.8 12.8 32 12.8 44.8 0 19.2-6.4 32-19.2 44.8C428.8 422.4 409.6 428.8 390.4 428.8S352 422.4 339.2 409.6 320 371.2 313.6 352zM544 448l204.8 0L576 121.6l-25.6 12.8 147.2 288L544 422.4 544 448z"  horiz-adv-x="1024" />

    
    <glyph glyph-name="tongji" unicode="&#58953;" d="M967.693307-96.493416 68.973859-96.493416c-21.281733 0-38.693507 17.411774-38.693507 38.693507l0 10.798141c0 21.281733 17.411774 38.693507 38.693507 38.693507l898.719448 0c21.281733 0 38.693507-17.411774 38.693507-38.693507l0-10.798141C1006.386814-79.081642 988.97504-96.493416 967.693307-96.493416zM780.572549 840.733854l0-880.312281c0-21.281733-17.411774-38.693507-38.693507-38.693507l-10.798141 0c-21.281733 0-38.693507 17.411774-38.693507 38.693507L692.387395 840.733854c0 21.281733 17.411774 38.693507 38.693507 38.693507l10.798141 0C763.15976 879.428375 780.572549 862.015587 780.572549 840.733854zM553.974956 548.552929l0-588.131356c0-21.281733-17.411774-38.693507-38.693507-38.693507l-10.798141 0c-21.281733 0-38.693507 17.411774-38.693507 38.693507L465.789802 548.552929c0 21.281733 17.411774 38.693507 38.693507 38.693507l10.798141 0C536.563183 587.246436 553.974956 569.834662 553.974956 548.552929zM310.465824 324.413887l0-363.9913c0-21.281733-17.411774-38.693507-38.693507-38.693507l-10.798141 0c-21.281733 0-38.693507 17.411774-38.693507 38.693507L222.28067 324.413887c0 21.281733 17.411774 38.693507 38.693507 38.693507l10.798141 0C293.05405 363.107394 310.465824 345.69562 310.465824 324.413887z"  horiz-adv-x="1024" />

    
    <glyph glyph-name="huo" unicode="&#59040;" d="M361.409 34.2c36.509-12.17 48.678 21.297 33.466 33.466-48.678 33.466-73.017 94.313-54.762 149.076 18.254 60.847 66.932 85.186 66.932 176.457 0 0 60.847-45.636 48.678-115.611 60.847 69.974 33.466 161.245 21.297 203.839 155.161-82.144 289.025-261.644 133.864-413.762-18.254-15.211 0-42.593 27.382-33.466 422.889 240.347 103.441 599.347 48.678 641.94 18.254-42.593 21.297-109.525-15.211-142.992-63.891 240.347-219.051 289.025-219.051 289.025 18.254-124.737-69.974-258.602-152.119-362.042-3.042 51.72-6.084 85.186-30.424 130.822-6.084-88.229-76.059-161.245-94.312-252.516-24.339-121.694 18.254-209.923 185.585-304.237v0z"  horiz-adv-x="1024" />

    
    <glyph glyph-name="icon--" unicode="&#59284;" d="M604.16 624.64c-40.96-40.96-40.96-107.52 0-151.04 40.96-40.96 107.52-40.96 151.04 0 40.96 40.96 40.96 107.52 0 151.04-43.52 40.96-110.08 40.96-151.04 0zM716.8 512c-20.48-20.48-53.76-20.48-74.24 0-20.48 20.48-20.48 53.76 0 74.24 20.48 20.48 53.76 20.48 74.24 0 20.48-20.48 20.48-53.76 0-74.24z m156.16 281.6H529.92c-28.16 0-33.28-12.8-58.88-38.4L133.12 417.28c-40.96-40.96-40.96-107.52 0-151.04l263.68-261.12c40.96-40.96 107.52-40.96 151.04 0l337.92 337.92c20.48 20.48 38.4 33.28 38.4 58.88V744.96c-2.56 25.6-25.6 48.64-51.2 48.64zM509.44 43.52c-20.48-20.48-53.76-20.48-74.24 0L171.52 304.64c-20.48 20.48-20.48 53.76 0 74.24l38.4 38.4 337.92-337.92-38.4-35.84z m363.52 384c0-12.8-12.8-33.28-25.6-46.08L583.68 117.76 245.76 455.68 509.44 716.8c12.8 12.8 30.72 28.16 46.08 28.16h294.4c12.8 0 25.6-10.24 25.6-25.6v-291.84z"  horiz-adv-x="1024" />

    
    <glyph glyph-name="zuo" unicode="&#59111;" d="M260.266667 407.466667L736 885.333333c12.8 12.8 36.266667 12.8 49.066667 0 12.8-12.8 12.8-36.266667 0-49.066666L332.8 384l452.266667-452.266667c12.8-12.8 12.8-36.266667 0-49.066666-12.8-12.8-36.266667-12.8-49.066667 0L260.266667 360.533333c-6.4 6.4-10.666667 14.933333-10.666667 23.466667 0 8.533333 4.266667 17.066667 10.666667 23.466667z"  horiz-adv-x="1024" />

    
    <glyph glyph-name="you" unicode="&#58888;" d="M327.6-54.8l435.8 436.2-435.8 439-45.4-45.1 390.9-393.8-390.8-391.1z"  horiz-adv-x="1024" />

    
    <glyph glyph-name="xiangce" unicode="&#58898;" d="M879.914071 663.922664c10.998926 0 19.998047-8.999121 19.998047-19.998047v-519.949224c0-10.998926-8.999121-19.998047-19.998047-19.998047H143.985939c-10.998926 0-19.998047 8.999121-19.998047 19.998047v519.949224c0 10.998926 8.999121 19.998047 19.998047 19.998047h735.928132m0 59.994141H143.985939c-44.195684 0-79.992188-35.796504-79.992188-79.992188v-519.949224c0-44.195684 35.796504-79.992188 79.992188-79.992188h735.928132c44.195684 0 79.992188 35.796504 79.992188 79.992188v519.949224c0 44.195684-35.796504 79.992188-79.992188 79.992188zM606.540768 234.964554l-229.27761 92.990919-233.277219-161.984181v-41.995899h735.928132v376.963187zM290.971585 543.934381c22.097842 0 39.996094-17.898252 39.996094-39.996094s-17.898252-39.996094-39.996094-39.996094-39.996094 17.898252-39.996094 39.996094 17.898252 39.996094 39.996094 39.996094m0 59.994142c-55.19461 0-99.990235-44.795625-99.990236-99.990236s44.795625-99.990235 99.990236-99.990235 99.990235 44.795625 99.990235 99.990235-44.795625 99.990235-99.990235 99.990236z"  horiz-adv-x="1024" />

    
    <glyph glyph-name="gonggao" unicode="&#58918;" d="M115.479782-128A115.536809 115.536809 0 0 0 0-12.520218V560.715716a115.479782 115.479782 0 0 0 115.536809 115.479782H280.5731L489.805356 885.313701a34.216232 34.216232 0 0 0 7.014328 5.702705 35.470827 35.470827 0 0 0 32.790555 1.710811l1.596758-0.741351 2.566217-1.482704 0.627297-0.399189a38.436234 38.436234 0 0 0 3.991894-3.079461l1.425676-1.311622 209.17523-209.118203h161.899803A115.479782 115.479782 0 0 0 1026.48695 560.715716v-573.12188a115.479782 115.479782 0 0 0-115.479782-115.479782z m-41.059478 681.758416v-555.899711a50.297861 50.297861 0 0 1 50.354887-50.29786H902.738245a50.297861 50.297861 0 0 1 50.297861 50.29786V553.758416a50.297861 50.297861 0 0 1-50.297861 50.29786H821.18956l50.012725-50.012725a35.470827 35.470827 0 0 0-50.126779-50.126779l-100.139505 100.139504H308.687437L208.547932 503.916772a35.470827 35.470827 0 0 0-50.126779 50.126779l50.012725 50.012725H124.832219a50.297861 50.297861 0 0 1-50.411915-50.29786z m306.349327 122.380055h268.027148L514.783205 810.095018zM263.636065 98.283345a29.254878 29.254878 0 1 0 0 57.027053h499.499955a29.254878 29.254878 0 1 0 0-57.027053z m0 228.108211a29.254878 29.254878 0 1 0 0 57.027053h499.499955a29.254878 29.254878 0 1 0 0-57.027053z"  horiz-adv-x="1026" />

    
    <glyph glyph-name="good" unicode="&#58922;" d="M832 531.2h-147.2s19.2 64 32 179.2c6.4 57.6-38.4 115.2-102.4 121.6h-12.8c-51.2 0-83.2-32-102.4-76.8l-38.4-96c-32-64-57.6-102.4-76.8-115.2-25.6-12.8-121.6-12.8-128-12.8H128c-38.4 0-64-25.6-64-57.6v-480c0-32 25.6-57.6 64-57.6h646.4c96 0 121.6 64 134.4 153.6l51.2 307.2c6.4 70.4-6.4 134.4-128 134.4z m-576-537.6H128V473.6h128v-480z m640 409.6l-51.2-307.2c-12.8-57.6-12.8-102.4-76.8-102.4H320V473.6c44.8 0 70.4 6.4 89.6 19.2 32 12.8 64 64 108.8 147.2 25.6 64 38.4 96 44.8 102.4 6.4 19.2 19.2 32 44.8 32h6.4c32 0 44.8-32 44.8-51.2-12.8-102.4-32-166.4-32-166.4l-25.6-83.2h243.2c19.2 0 32 0 44.8-12.8 12.8-12.8 6.4-38.4 6.4-57.6z"  horiz-adv-x="1024" />

    
    <glyph glyph-name="xiezi" unicode="&#58894;" d="M841 74c-0.7-0.6-69-55.2-207.2 3.8-163.5 69.7-288.8 1.7-294-1.2-12.2-6.8-16.6-22.2-9.8-34.4 6.8-12.2 22.2-16.6 34.4-9.8 1.1 0.6 108.6 58.9 249.5-1.2 54.7-23.3 101-31.2 138.8-31.2 77 0 118.1 32.9 120.6 35 10.8 8.9 12.3 24.9 3.3 35.6-8.9 10.8-24.8 12.3-35.6 3.4zM529.3 407.3c-9.9 9.9-25.9 9.9-35.8 0L370.9 284.70000000000005c7.5 51.4 63.7 153.6 171.2 261.1 64 64 132 115.9 191.5 146.1 54.9 27.9 89.6 30.1 99.8 20 24.9-24.9-28.7-153.8-166.1-291.3-51.9-51.9-106.4-95.8-157.7-127.1-11.9-7.3-15.7-22.9-8.4-34.8 7.3-11.9 22.9-15.7 34.8-8.4 54.7 33.4 112.4 79.9 167.1 134.6 67.7 67.7 122.9 140.3 155.5 204.4 47.1 92.7 31.8 137.3 10.7 158.5-21.1 21.1-65.8 36.4-158.5-10.7-64.1-32.6-136.7-87.8-204.4-155.5-119-119-211.6-266.9-180.3-341.8L142 55.799999999999955c-9.9-9.9-9.9-25.9 0-35.8 4.9-4.9 11.4-7.4 17.9-7.4s13 2.5 17.9 7.4l351.5 351.5c9.9 9.9 9.9 25.9 0 35.8z"  horiz-adv-x="1024" />

    
    <glyph glyph-name="icon-" unicode="&#58881;" d="M870.26346667 640.3185777799999H153.73653333c-14.56355555 0-23.30168889 11.65084445-23.30168888 23.30168889 0 14.56355555 11.65084445 23.30168889 23.30168888 23.30168888h716.52693334c14.56355555 0 23.30168889-11.65084445 23.30168888-23.30168888s-11.65084445-23.30168889-23.30168888-23.30168889zM870.26346667 360.69831110999996H153.73653333c-14.56355555 0-23.30168889 11.65084445-23.30168888 23.30168889s11.65084445 23.30168889 23.30168888 23.30168889h716.52693334c14.56355555 0 23.30168889-11.65084445 23.30168888-23.30168889s-11.65084445-23.30168889-23.30168888-23.30168889zM870.26346667 78.16533332999995H153.73653333c-14.56355555 0-23.30168889 11.65084445-23.30168888 23.30168889s11.65084445 23.30168889 23.30168888 23.30168889h716.52693334c14.56355555 0 23.30168889-11.65084445 23.30168888-23.30168889s-11.65084445-23.30168889-23.30168888-23.30168889z"  horiz-adv-x="1024" />

    
    <glyph glyph-name="tubiao_huaban" unicode="&#58889;" d="M757.45625 178.97812499999998c54.15 63.459375 84.871875 143.9625 84.871875 228.75C842.3375 602.784375 684.246875 760.875 489.209375 760.875S136.0625 602.775 136.0625 407.7375s158.1-353.146875 353.1375-353.146875a353.053125 353.053125 0 0 1 103.125 15.309375 27.91875 27.91875 0 0 1-16.284375 53.4375 297.3 297.3 0 0 0-86.85-12.88125c-164.19375 0-297.3 133.125-297.3 297.309375s133.125 297.3 297.3 297.3 297.309375-133.125 297.309375-297.3c0-77.896875-30.871875-151.546875-84.759375-207.05625a32.278125 32.278125 0 0 1 0.3375-45.309375l130.865625-130.884375a27.91875 27.91875 0 0 1 39.4875 39.4875z"  horiz-adv-x="1024" />

    
    <glyph glyph-name="shenghuo" unicode="&#59032;" d="M783.85303666 500.50844445a155.34459221 155.34459221 0 1 0 0-310.68918557 194.18074112 194.18074112 0 0 0-194.18073999-194.18073998h-271.85303779a194.18074112 194.18074112 0 0 0-194.18073998 194.18073998v349.52533333a38.83614777 38.83614777 0 0 0 38.83614777 38.83614891h582.54222222a38.83614777 38.83614777 0 0 0 38.83614777-38.83614891v-38.83614776z m0-77.67229668v-155.34459222a77.67229667 77.67229667 0 1 1 0 155.34459222zM201.31081443 500.50844445v-310.68918557a116.50844445 116.50844445 0 0 1 116.50844445-116.50844445h271.85303779a116.50844445 116.50844445 0 0 1 116.50844445 116.50844445v310.68918557H201.31081443z m116.50844445 271.85303665h77.67229667v-155.34459221h-77.67229667V772.3614811z m194.18074112 0h77.67229667v-155.34459221h-77.67229667V772.3614811z"  horiz-adv-x="1024" />

    
    <glyph glyph-name="gongju" unicode="&#59239;" d="M354.6536583 216.64390224l-58.39024395-12.29268251L191.68780449 45.51219550999997l39.42439102-39.51219551 159.01463408 104.75121973 12.20487803 58.21463408 98.34146279 99.13170674-47.67804844 47.7658538zM580.04878028 238.59512197000004l294.58536591 293.61951211c41.00487802 40.82926817 41.00487802 107.03414619 0.08780537 147.86341436-40.91707354 40.91707354-107.12195156 40.91707354-147.95121972 0L432.18536592 386.5463417 580.04878028 238.59512197000004zM819.49268252 596.92682959c7.63902422 7.63902422 19.75609776 7.63902422 27.30731748 0 7.55121972-7.46341435 7.55121972-19.75609776-0.0878045-27.13170762L617.4536583 340.36097578c-7.55121972-7.63902422-19.84390224-7.63902422-27.3073166 0-7.63902422 7.55121972-7.63902422 19.84390224 0 27.39512198l229.34634082 229.17073183zM763.56097578 653.03414619c7.55121972 7.55121972 19.84390224 7.55121972 27.30731661 0 7.63902422-7.63902422 7.63902422-19.75609776-1e-8-27.39512197L561.52195156 396.38048789c-7.63902422-7.72682959-19.84390224-7.72682959-27.30731748 0-7.55121972 7.55121972-7.55121972 19.84390224 0 27.21951211L763.56097578 653.03414619zM707.36585381 315.95121972000004L571.44390224 180.02926817000002c62.86829238-68.13658565 114.67317041-124.77073183 140.83902422-150.84878028 40.47804844-40.56585381 105.98048789-40.82926817 146.01951299-0.70243945 40.12682959 40.12682959 39.77560987 105.54146367-0.70243945 146.10731748L707.36585381 315.95121972000004z m108-244.53658564c-16.24390224-16.15609776-42.49756055-16.15609776-58.74146368 0-16.15609776 16.15609776-16.24390224 42.49756055 0 58.74146368 16.15609776 16.15609776 42.49756055 16.15609776 58.74146368 0 16.24390224-16.33170761 16.24390224-42.58536592 0-58.74146368zM502.07804844 577.60975605c0 105.98048789-85.78536592 191.8536583-191.67804844 191.8536583-25.99024394 0-50.83902422-5.18048789-73.40487803-14.57560985l102.73170762-102.73170674c18.52682959-18.52682959 18.52682959-48.90731748 0-67.52195157l-38.98536592-39.16097578c-18.52682959-18.52682959-48.90731748-18.52682959-67.52195156 0L131.80487803 646.8878045c-8.34146367-21.51219551-13.17073184-44.78048789-13.17073184-69.27804844 0-105.80487803 85.87317041-191.67804844 191.76585381-191.67804844S502.07804844 471.80487803 502.07804844 577.60975605z"  horiz-adv-x="1024" />

    
    <glyph glyph-name="wode" unicode="&#58936;" d="M280.7144 404.7126c-2.1465 0-3.8394-0.315-5.1696-0.8451 1.8045 0.5472 3.7314 0.8451 5.7159 0.8451L280.7144 404.7126 280.7144 404.7126zM873.917 168.36090000000002c0.0594 1.098 0.2007 2.1744 0.432 3.2121C874.0952 171.0978 873.9602 170.08079999999995 873.917 168.36090000000002L873.917 168.36090000000002zM913.4918 604.9869c0.0108 0.0423 0.0108 0.0963 0.0108 0.1395l0 0.5157C913.5017 605.4189 913.5017 605.1966 913.4918 604.9869L913.4918 604.9869zM873.8945 605.0517c0-0.0441 0-0.0882 0.0117-0.1359-0.0117 0.2394-0.0117 0.4824-0.0117 0.7263L873.8945 605.0517 873.8945 605.0517zM897.7769 11.193899999999985c-5.5701 41.4783-17.7543 81.5283-36.2061 119.0376-3.6072 7.3323-7.4304 14.5413-11.4813 21.6099-0.0108 0.0216-0.0207 0.0432-0.0486 0.0648-17.5653 29.7486-39.1149 57.3714-64.2348 82.0269l-0.0108 0.0108c-5.4612 5.3586-11.0853 10.5885-16.8777 15.6609-41.3001 36.189-88.9803 63.0279-139.8249 79.3494 9.2043 5.0994 18.1053 10.8099 26.6544 17.1369 9.7398 7.1766 19.0089 15.1479 27.7272 23.8653 45.837 45.8442 71.091 106.8012 71.091 171.6363s-25.2549 125.7912-71.091 171.6327C638.459 758.2335 578.8763 783.3858 515.3714 784.2939c-1.0053 0.0108-2.0169 0.0216-3.0231 0.0216-1.0107 0-2.0169-0.0108-3.0213-0.0216-63.5049-0.9081-123.0939-26.0604-168.1038-71.0703-45.8361-45.8415-71.0919-106.7985-71.0919-171.6327s25.2558-125.7921 71.0919-171.6363c8.7174-8.7174 17.9865-16.6887 27.72-23.8653 8.55-6.327 17.4564-12.0375 26.6607-17.1369-50.8446-16.3215-98.5257-43.1604-139.8258-79.3494-5.7906-5.0733-11.421-10.3023-16.8768-15.6609-25.1406-24.6762-46.7181-52.3215-64.2942-82.1025-4.0491-7.0686-7.8732-14.2767-11.4849-21.6099-18.4527-37.5093-30.6306-77.5593-36.2061-119.0376-1.7793-13.2876 7.5429-25.5042 20.826-27.288 1.0917-0.1458 2.1897-0.2214 3.267-0.2214 0.9846 0 1.9467 0.054 2.9088 0.1782 9.6048 2.0925 17.3592 9.9225 18.8622 20.2086 11.1888 76.7754 47.7783 146.5416 100.3752 199.6686 62.4231 63.0711 147.3795 102.7107 239.1939 102.8682l0.5193 0c91.6146-0.3141 176.3775-39.9159 238.6746-102.8682 52.5924-53.127 89.1873-122.8941 100.3752-199.6686 1.5039-10.2636 9.2259-18.0837 18.8037-20.1978 0.0207 0 0.0324-0.0108 0.054-0.0108 0.963-0.1251 1.9314-0.1782 2.9151-0.1782 1.0755 0 2.1681 0.0756 3.2661 0.2214C890.2385-14.310299999999984 899.5607-2.0937000000000126 897.7769 11.193899999999985L897.7769 11.193899999999985zM511.8299 347.40509999999995c-0.4923 0-0.9792 0-1.4652 0.0108-90.5931 0.6651-171.3636 63.6066-193.4388 148.0356-0.2439 0.9189-0.486 1.8495-0.7083 2.7792-3.4569 13.9581-5.2956 28.4607-5.2956 43.3602 0 14.8986 1.8387 29.5686 5.2956 43.7697 0.2223 0.9531 0.4644 1.8927 0.7083 2.835 22.1949 86.5422 103.7178 155.3283 194.904 155.3283l1.0377 0c91.1817 0 172.71-68.787 194.9049-155.3283 0.2439-0.9423 0.486-1.8819 0.7083-2.835 3.4551-14.2011 5.2938-28.8711 5.2938-43.7697 0-14.9004-1.8387-29.4021-5.2938-43.3602-0.2223-0.9297-0.4653-1.8603-0.7083-2.7792-22.0752-84.429-102.8466-147.3705-193.4442-148.0356C513.5012 347.40509999999995 512.6678 347.40509999999995 511.8299 347.40509999999995L511.8299 347.40509999999995zM511.8299 347.40509999999995"  horiz-adv-x="1024" />

    
    <glyph glyph-name="h5e" unicode="&#58964;" d="M513.08331523 129.97442959c-3.7180793 0-7.42176826 0.66644825-10.9581706 2.0155333l-163.30947627 62.30255889c-11.0256249 4.20734707-18.66324638 14.39114239-19.64358193 26.174054l-6.05559463 73.77697881c-1.38416133 16.89864258 11.18661503 31.72419141 28.08166025 33.11015098 17.12978613 1.43992354 31.72329141-11.19201152 33.11914483-28.09335234l4.4798625-54.49675079 134.57665723-51.34079092 142.53536073 51.43972413 5.66435919 131.63115409L338.87862617 376.49368887c-16.20611191 0-29.62051699 12.6040544-30.63772792 28.77688915l-11.5094962 183.06098438c-0.54592998 8.46595987 2.45713448 16.77362783 8.25190488 22.94794161 5.8136581 6.17701201 13.91086846 9.68553281 22.38582218 9.68553281l381.37292928 0c16.95710302 0 30.70608135-13.74268271 30.70608135-30.69978575 0-16.96339864-13.7480792-30.70608135-30.70608134-30.70608135l-348.67559795 0 7.63852148-121.65871552 325.93001924 0c8.37602138 0 16.39318536-3.41858232 22.16816982-9.46518222 5.79387217-6.04660078 8.87878037-14.18878037 8.51272823-22.55670615l-7.94071582-184.22209776c-0.53423789-12.44306338-8.52531943-23.3283832-20.25786533-27.56091357l-172.62356133-62.30795538C520.1372331 130.57792001999997 516.60083076 129.97442959 513.08331523 129.97442959zM513.08331523-28.034040519999962c-3.77923799 0-7.53958828 0.6889333-11.11826161 2.08388671L202.2351708 90.50289140999996c-11.30353594 4.3881249-18.96723984 15.03330732-19.54374961 27.1453957L152.61131533 745.46492666c0.16189013 32.49047109 27.20115791 32.83763643 55.82245254 33.21987715 80.05652138 1.05768281 320.33401348-1.05138721 320.35200117-1.05138721-0.69522891 0 216.86006865 2.0901832 289.23579844 1.05138721 23.78257559-0.35436006 53.38960224-0.78246914 53.38960225-31.75477032l-30.06661465-629.28264638c-0.57830801-12.09589893-8.19614268-22.7078042-19.46370323-27.12291065L524.26813203-25.93126699000004C520.66967188-27.340610749999996 516.87424531-28.034040519999962 513.08331523-28.034040519999962zM243.05579404 140.51348408l269.98974668-104.90217627 267.91755206 104.84371583 27.60408456 576.93453837c-11.19920713 0.10522881-26.85938906 0.18617344-48.79281885 0.18617344-92.36017969 0-230.90764482-1.34638682-230.95081493-1.34638681-0.58910098 0-153.8406958 1.34638682-256.02401602 1.34638681-26.50502988 0-44.78963291-0.0989332-57.4296627-0.22664619L243.05579404 140.51348408z"  horiz-adv-x="1024" />

    
    <glyph glyph-name="anli" unicode="&#58968;" d="M888.25413762 499.64212684l-339.23046822-165.36359311a55.32627236 55.32627236 0 0 0-37.30897962-13.88649868c-13.99636025 0-26.82818868 4.63615726-36.73769948 13.88649868L135.74652131 499.64212684l-2.92231685 2.30709209A54.93077074 54.93077074 0 0 0 116.49877904 541.2796505599999c0 15.02905896 5.84463368 28.91555764 16.32542542 39.30846011l2.32906439 2.3290644L474.40571015 765.63889151A55.21641081 55.21641081 0 0 0 511.71468978 779.50341788c13.97438794 0 26.80621637-5.20743739 37.30897962-13.86452637l339.23046822-182.72171644 2.32906517-2.3290644c10.50276326-10.3929017 16.32542542-24.27940038 16.32542465-39.30846011 0-15.02905896-5.82266138-28.91555764-16.32542465-39.33043164l-2.32906517-2.30709208zM860.28338944 548.79418004L522.19548073 730.94461636l-2.32906441 2.30709285a13.51296936 13.51296936 0 0 1-18.06123812 0l-2.3290644-2.30709285L161.38820509 548.79418004c-1.16453258-2.30709208-2.32906439-4.61418494-2.32906441-6.94324934 1.16453258-2.87837222 1.73581272-5.18546508 2.90034454-6.94324934h0.02197231l338.0659364-164.79231296 2.3290644-2.30709209c4.68010188-4.61418494 12.83182843-4.61418494 18.08320968 0l2.32906517 2.30709209 338.08790871 164.79231296a12.30449293 12.30449293 0 0 1 1.73581195 6.94324934c0 2.32906439-0.57128014 5.20743739-2.32906439 6.94324934zM164.31052193 218.63827475999994a13.02957848 13.02957848 0 0 1-1.75778426-15.62231142l338.08790872-164.79231219 2.32906439-2.30709209c4.65812957-4.63615726 12.80985612-4.63615726 18.06123736 0l2.32906517 2.30709209 338.08790872 164.7923122a13.02957848 13.02957848 0 0 1-1.75778503 15.6223114l30.89306579 30.62939803a55.48007856 55.48007856 0 0 0 0-79.21017188l-2.32906517-2.30709208-339.23046822-165.36359233a54.49132447 54.49132447 0 0 0-37.30897962-13.88649945 54.93077074 54.93077074 0 0 0-36.73769948 13.88649945L135.74652131 167.75040881999996l-2.3290644 2.30709208a55.52402318 55.52402318 0 0 0 0 79.21017189l30.89306502-30.62939803zM511.71468978 154.45716259999995c-13.99636025 0-26.82818868 4.61418494-36.73769948 13.86452636L138.64686583 331.97144165a20.74185878 20.74185878 0 0 0-5.82266137 4.0429048A54.88682611 54.88682611 0 0 0 116.49877904 375.32280577999995c0 15.05103127 5.84463368 28.91555764 16.32542542 39.33043166L163.71726948 384.00186785a11.73321278 11.73321278 0 0 1-3.49359698-8.67906207 15.38061596 15.38061596 0 0 1 1.73581272-6.94324933l335.18756418-163.05650025a20.74185878 20.74185878 0 0 0 5.82266138-4.0429048c4.65812957-4.61418494 12.80985612-4.61418494 18.06123736 0a20.74185878 20.74185878 0 0 0 5.82266215 4.04290479l335.1655911 163.05650025a12.12871442 12.12871442 0 0 1 1.75778504 6.94324934 11.73321278 11.73321278 0 0 1-3.49359699 8.67906207l30.8930658 30.65136959c10.48079095-10.41487402 16.32542542-24.27940038 16.32542464-39.33043166 0-15.02905896-5.84463368-28.89358532-16.32542464-39.30845933a20.74185878 20.74185878 0 0 0-5.82266214-4.0429048l-336.3301237-164.22103283a57.7212537 57.7212537 0 0 0-37.30897962-13.29324622z"  horiz-adv-x="1024" />

    
    <glyph glyph-name="fuwuqi" unicode="&#58887;" d="M740 76.79999999999995a32.16 32.16 0 1 0 34.08 32.16 32.64 32.64 0 0 0-34.08-32.16m-109.44 0a32.16 32.16 0 1 0 34.08 32.16 32.64 32.64 0 0 0-34.08-32.16z m-390.24 63.84h192v-63.84h-192z m-51.84 76.8h-57.6v-179.04a38.88 38.88 0 0 1 41.28-38.4h684a39.84 39.84 0 0 1 41.28 38.4v179.04z m552.96 409.44A35.04 35.04 0 0 0 704 657.6a34.56 34.56 0 0 0 32.64 33.12 35.04 35.04 0 0 0 35.52-30.72 33.6 33.6 0 0 0-30.72-33.12z m-109.44 0a37.44 37.44 0 0 0-31.68 15.36 30.24 30.24 0 0 0 0 32.16 35.04 35.04 0 0 0 64.32-13.92 31.68 31.68 0 0 0-32.64-33.6zM240.32 691.2h192v-64.32h-192zM839.84 768H189.44a56.16 56.16 0 0 1-57.6-53.76v-164.16h768V714.24A58.08 58.08 0 0 1 839.84 768zM240.32 409.44h192v-63.84h-192z m388.8 0a34.56 34.56 0 0 0 31.68-19.2 29.76 29.76 0 0 0-6.72-34.56 38.88 38.88 0 0 0-36.96-7.68 33.6 33.6 0 0 0-22.08 29.28 34.56 34.56 0 0 0 34.08 32.16z m109.44 0a35.04 35.04 0 0 0 35.52-30.72 34.56 34.56 0 0 0-32.64-33.12 35.04 35.04 0 0 0-35.52 30.72 33.6 33.6 0 0 0 32.64 33.12zM130.88 268.79999999999995H896V486.24H128z"  horiz-adv-x="1024" />

    
    <glyph glyph-name="shouye1" unicode="&#58962;" d="M922.971875 430.640625l-38.1375 34.471875-90.375 81.703125-106.265625 96.075-86.915625 78.5625-24.75 22.3875c-8.85 7.9875-17.7 16.05-28.8 20.86875-11.653125 5.053125-23.49375 8.240625-36.35625 8.090625-13.125-0.159375-25.05-3.50625-36.890625-8.90625-7.9125-3.609375-14.83125-9.13125-21.253125-14.915625q-8.240625-7.425-16.4625-14.878125l-76.453125-69.121875L254.853125 569.625Q206.225 525.684375 157.625 481.725l-53.971875-48.75-2.540625-2.296875c-10.95-9.9-10.81875-29.878125 0-39.796875 11.7-10.74375 28.125-10.565625 39.796875 0l30.4125 27.496875v-335.259375c0.046875-21.375 7.36875-40.434375 20.625-57.009375 15.759375-19.78125 41.25-30.675 66.290625-30.88125H739.53125c8.803125 0 17.60625-0.075 26.409375 0 28.828125 0.2625 54.009375 14.175 71.00625 37.059375 10.81875 14.559375 15.778125 33.0375 15.80625 51.01875V418.275c9.88125-9 19.7625-17.990625 29.765625-26.85l0.646875-0.58125c10.921875-9.871875 29.165625-11.5875 39.80625 0 9.88125 10.7625 11.6625 29.25 0 39.796875zM595.4375 51.515625H415.240625V196.08749999999998c0 8.1375-0.478125 16.546875 0.13125 24.73125a60.403125 60.403125 0 0 0 2.00625 7.35 57.478125 57.478125 0 0 0 3.215625 5.625c0.225 0.346875 0.459375 0.684375 0.703125 1.021875 0.9375 1.03125 2.08125 2.1375 2.19375 2.240625 0.9375 0.9375 1.9875 1.78125 2.953125 2.68125a56.653125 56.653125 0 0 0 5.934375 3.43125 60.853125 60.853125 0 0 0 7.134375 1.959375c5.175 0.346875 10.40625 0.178125 15.58125 0.178125h110.878125c6.1875 0 12.515625 0.2625 18.75-0.16875a59.653125 59.653125 0 0 0 7.2-1.96875 57.478125 57.478125 0 0 0 5.625-3.215625c0.346875-0.225 0.684375-0.459375 1.021875-0.703125 1.03125-0.9375 2.1375-2.090625 2.240625-2.19375 0.9375-0.9375 1.78125-1.9875 2.68125-2.953125a56.653125 56.653125 0 0 0 3.43125-5.934375 60.13125 60.13125 0 0 0 1.978125-7.228125c0.4875-6.778125 0.159375-13.70625 0.159375-20.465625v-148.959375zM419.80625 232.99687500000005c-0.065625 0.084375 0.403125 0.646875 1.03125 1.321875a10.7625 10.7625 0 0 0-1.03125-1.321875z m176.915625 7.734375c0.084375 0.065625 0.646875-0.403125 1.321875-1.03125a10.7625 10.7625 0 0 0-1.321875 1.03125zM784.625 57.75l-0.309375-0.215625a58.125 58.125 0 0 0-6.459375-3.75 62.55 62.55 0 0 0-7.6875-2.1c-5.41875-0.365625-10.9125-0.1875-16.321875-0.1875h-88.546875V215.05312500000002c0 17.175-4.25625 35.034375-14.409375 49.153125-16.5375 22.96875-41.371875 37.078125-70.021875 37.36875-44.175 0.459375-88.378125 0-132.5625 0-16.078125 0-31.415625-2.8125-45.75-10.51875-25.228125-13.575-40.3125-39.478125-43.228125-67.434375-0.590625-5.625-0.365625-11.4-0.365625-17.071875v-155.034375h-40.434375c-20.00625 0-40.021875-0.13125-60 0-1.51875 0-3.028125 0.065625-4.5375 0.16875a63.6375 63.6375 0 0 0-7.78125 2.128125 58.678125 58.678125 0 0 0-5.925 3.365625l-0.6375 0.43125c-1.05 0.9375-2.109375 1.875-3.103125 2.8125s-1.809375 1.940625-2.7 2.925c-0.075 0.103125-0.15 0.196875-0.215625 0.3a58.996875 58.996875 0 0 0-3.75 6.459375 62.8125 62.8125 0 0 0-2.175 8.034375c-1.078125 12.75-0.1125 25.96875-0.1125 38.6625V413.0625c0 15.534375 0.328125 31.10625 0 46.63125v0.684375a26.446875 26.446875 0 0 1-1.2 7.790625l37.659375 34.05L367.690625 595.875l87.684375 79.275c12.91875 11.671875 25.715625 23.4375 38.746875 35.025l0.065625 0.075 0.290625 0.2625a76.03125 76.03125 0 0 0 6.778125 3.965625 61.1625 61.1625 0 0 0 7.05 1.875 61.78125 61.78125 0 0 0 7.453125 0 62.259375 62.259375 0 0 0 7.003125-1.875c2.2875-1.171875 4.471875-2.475 6.675-3.853125l0.665625-0.590625 0.9375-0.80625 5.728125-5.175 23.925-21.6375 83.79375-75.75 103.4625-93.534375 49.6875-44.925a27.628125 27.628125 0 0 1-1.134375-7.85625v-334.865625c0-14.41875 0.1125-28.846875 0-43.265625 0-1.44375-0.065625-2.8875-0.159375-4.321875a62.175 62.175 0 0 0-2.1375-7.790625 56.98125 56.98125 0 0 0-3.35625-5.934375c-0.140625-0.215625-0.290625-0.421875-0.440625-0.6375-0.9375-1.040625-1.828125-2.1-2.8125-3.09375s-1.9875-1.81875-2.971875-2.690625z"  horiz-adv-x="1024" />

    
    <glyph glyph-name="fankuitianxie" unicode="&#59035;" d="M989.89472656 762.04694011c-39.93662109 31.94912109-135.78398438 23.96074219-267.57333984-75.87861328-187.70097656-139.77773437-271.56708984-323.48320312-391.37519531-503.1975586-19.96787109-27.95537109 11.98125-43.93037109 35.94287109-31.94912109l75.87861328 43.93037109c11.98125 3.99375 15.97412109 3.99375 11.98125 23.96074219-7.9875 59.90449219 15.975 115.81523437 51.91699219 163.73847656v0c131.78935547-55.91074219 291.53496094-23.96074219 347.44658203 135.78398438 71.88486328 15.975 139.77773437 95.84736328 151.75810547 151.75722656 11.98125 39.93662109 7.9875 75.87861328-15.9741211 91.85361328zM187.17558594 182.97076822999998c107.82773438-187.70097656 343.45283203-251.59833984 531.15205078-143.77148437 123.80185547 71.88486328 191.69384766 199.68134766 195.68759766 331.47070312 0 43.93037109-51.91699219 39.93662109-51.91699219 0 0-115.81523437-59.90449219-223.64384766-167.73222656-287.54121093-163.73847656-91.85361328-371.40732422-35.94287109-463.2609375 123.80185546-95.84736328 163.73847656-39.93662109 371.40732422 123.80185546 463.2609375 87.85986328 51.91699219 195.68759766 59.90449219 283.54746094 23.96074219 35.94287109-11.98125 51.91699219 35.94287109 15.9741211 47.92412109-103.83486328 35.94287109-219.64833984 31.94912109-323.48320313-27.95537109-187.70097656-107.82773438-251.59833984-347.44658203-143.77148437-531.15205078z"  horiz-adv-x="1138" />

    


  </font>
</defs>
</svg>
